<svg xmlns="http://www.w3.org/2000/svg" viewBox="0 0 256 236" preserveAspectRatio="xMidYMid" xmlns:v="https://vecta.io/nano"><path d="M128.075 236.075h0l47.104-144.97H80.971l47.104 144.97h0z" fill="#e24329"/><path d="M128.075 236.074L80.971 91.104H14.956l113.119 144.97h0z" fill="#fc6d26"/><path d="M14.956 91.104h0L.642 135.16a9.75 9.75 0 0 0 3.543 10.903l123.891 90.012L14.956 91.104h0z" fill="#fca326"/><path d="M14.956 91.105h66.015L52.6 3.79c-1.459-4.493-7.815-4.492-9.275 0l-28.37 87.314h0z" fill="#e24329"/><path d="M128.075 236.074l47.104-144.97h66.015l-113.119 144.97h0z" fill="#fc6d26"/><path d="M241.194 91.104h0l14.314 44.055a9.75 9.75 0 0 1-3.543 10.903l-123.891 90.012 113.119-144.97h0z" fill="#fca326"/><path d="M241.194 91.105h-66.015L203.55 3.79c1.459-4.493 7.815-4.492 9.275 0l28.37 87.314h0z" fill="#e24329"/></svg>