<svg xmlns="http://www.w3.org/2000/svg" width="226" height="312" xmlns:v="https://vecta.io/nano"><style><![CDATA[.B{fill-rule:evenodd}.C{fill:#dcd9d8}.D{fill:#f7e4cd}.E{fill:#d33833}.F{fill:#231f20}.G{stroke:#d33833}.H{stroke-width:2.5}]]></style><path d="M222.147 150.42c0 61.786-48.969 111.874-109.375 111.874S3.398 212.206 3.398 150.42 52.367 38.544 112.772 38.544 222.147 88.633 222.147 150.42" class="B E"/><path d="M7.855 178.128s-7.918-116.666 99.583-120l-7.499-12.5-58.333 19.584-16.667 19.166-14.583 27.917-8.334 32.5 2.5 21.666" fill="#ef3d3a"/><path d="M37.86 74.101C18.67 93.736 6.795 120.846 6.795 150.837h0c0 29.985 11.875 57.099 31.065 76.73h0c19.199 19.631 45.659 31.745 74.911 31.745h0c29.253 0 55.714-12.114 74.911-31.745h0c19.189-19.631 31.066-46.745 31.066-76.73h0c0-29.991-11.877-57.101-31.066-76.736h0c-19.197-19.627-45.659-31.741-74.911-31.744h0C83.519 42.36 57.06 54.474 37.86 74.101h0zm-4.857 158.215C12.608 211.459 0 182.634 0 150.837h0c0-31.801 12.608-60.624 33.003-81.482h0c20.39-20.862 48.614-33.794 79.768-33.79h0c31.154-.004 59.381 12.928 79.768 33.79h0c20.396 20.859 33.006 49.684 33.004 81.482h0c.003 31.796-12.608 60.622-33.004 81.479h0c-20.386 20.861-48.614 33.791-79.768 33.791h0c-31.154 0-59.378-12.93-79.768-33.791h0" class="F"/><g class="B"><path d="M158.814 151.04l-16.667 2.5-22.5 2.5-14.584.416-14.166-.416-10.834-3.334-9.583-10.416-7.5-21.25-1.666-4.584-10-3.333-5.834-9.584-4.166-13.75 4.584-12.084 10.833-3.75 8.75 4.167 4.168 9.166 5-.834 1.666-2.083-1.666-9.584-.418-12.084 2.5-16.666-.098-9.52 7.598-12.146 13.333-9.584 23.334-10 25.833 3.75 22.5 16.25 10.417 16.666 6.666 12.084 1.666 30-5 25.834-9.166 22.916-8.75 12.084" fill="#f0d6b7"/><path d="M144.646 223.123l-59.584 2.5v10l5 35-2.5 2.917-41.666-14.167-2.918-5-4.167-47.083-9.582-28.334-2.084-6.666 33.332-22.916 10.418-4.167 9.166 11.25 7.916 7.084 9.168 2.916 4.166 1.25 5 21.666 3.75 4.583 9.584-3.333-6.668 12.917 36.25 17.083-4.583 2.5" fill="#335061"/><path d="M45.896 77.706l10.833-3.75 8.75 4.167 4.168 9.166 5-.834 1.25-5-2.5-9.583 2.5-22.917-2.084-12.5 7.5-8.75 16.25-12.916-4.584-6.25-22.916 11.25-9.583 7.5-5.416 11.666-8.333 11.25-2.5 13.334 1.668 14.166" fill="#6d6b6d"/><path d="M62.979 38.54s6.25-15.416 31.25-22.916 1.25-5.417 1.25-5.417L68.396 20.624 57.979 31.04l-4.582 8.334 9.582-.834m-12.5 36.25s-8.75-29.167 24.583-33.334l-1.25-5-22.916 5.417-6.667 21.666 1.668 14.166 4.582-2.916" class="C"/><path d="M63.812 113.54l5.456-5.286s2.462.286 2.878 3.203 1.666 29.167 19.582 43.335c1.634 1.293-13.332-2.085-13.332-2.085l-13.334-20.833m75.419-26.25s.971-12.63 4.373-11.659 3.401 4.372 3.401 4.372-8.26 5.344-7.774 7.286" class="D"/></g><path d="M175.063 59.374s-6.867 1.45-7.5 7.5 7.5 1.25 8.75.834m-51.667-7.917s-9.168 1.25-9.168 7.083 10.418 5.417 13.334 2.917" class="D"/><g class="B"><path d="M67.979 86.874s-15.834-9.584-17.5-.416-5.418 15.834 2.5 25.416l-5.416-1.666-5-12.916-1.666-12.5 9.582-10.001 10.834.834 6.25 5 .416 6.25m7.5-26.251s7.084-36.666 42.918-43.75c29.501-5.831 44.999 1.25 50.833 7.916 0 0-26.25-31.249-51.25-21.666S74.646 30.207 75.062 41.456l.416 19.167m96.668-31.667s-12.082-.416-12.5 10.417c0 0-.001 1.666.833 3.333 0 0 9.585-10.834 15.417-5" class="D"/><path d="M119.236 43.835s-2.08-16.629-16.257-6.961c-9.166 6.25-8.332 15-6.666 16.666s1.213 5.024 2.482 2.72.85-9.804 5.434-11.886 12.097-4.411 15.007-.539" class="D"/><path d="M80.062 156.456l-39.166 17.5s16.25 64.584 7.916 84.584l-5.834-2.083-.416-24.584-10.832-46.666-4.584-12.918 40.832-27.499 12.084 11.665m4.027 35.723l5.557 6.78v25h-6.668l-.832-19.584c0-2.083.832-9.583.832-9.583m1.251 32.917l-18.75.832 5.418 3.75 13.332 2.084" fill="#49728b"/><g fill="#335061"><path d="M148.396 223.54l15.416-.417 3.75 38.334-15.834 2.082-3.333-40"/><path d="M152.563 223.54l23.334-1.25s9.583-24.167 9.583-25.417 8.334-35 8.334-35l-18.75-19.583-3.75-3.334-10 10v38.75l-8.75 35.832"/></g><path d="M162.979 220.623l-14.583 2.917 2.083 11.668c5.416 2.5 14.584-4.168 14.584-4.168m-1.667-83.332l29.166 21.666.834-10-22.084-20.416-7.916 8.75" fill="#49728b"/><path d="M98.689 305.627l-8.627-35.005-4.29-25.829-.71-19.171 39.044-2.079 24.291-.004-2.209 43.754 3.75 33.75-.416 6.25-31.666 2.5-19.167-4.167" fill="#fff"/><path d="M142.979 223.123s-2.082 43.334 4.168 74.166c0 0-12.5 7.918-30.834 10l35.001-1.25 4.166-2.5-5-68.333-1.25-14.585" class="C"/><path d="M168.272 258.128l16.25-4.584 30.833-1.666 4.584-14.166-8.334-24.584-9.583-1.25-13.334 4.167-12.793 6.246-6.791-1.246-5.293 2.079" fill="#fff"/><path d="M167.979 249.79s10.832-4.999 12.5-4.582l-4.583-22.918 5.416-2.082s3.75 21.666 3.75 24.166l25.416 1.25s5-9.584 3.75-19.584l4.584 13.334.416 7.5-6.666 10-7.5 1.667-12.5-.417-4.166-5.416-14.584 2.082-4.584 1.667" class="C"/></g><path d="M151.605 220.211l-9.166-23.334-9.584-13.75s2.082-5.834 5-5.834h9.584l9.166 3.334-.833 15.417-4.167 24.167" fill="#fff"/><path d="M153.396 212.29s-11.668-22.499-11.668-25.832c0 0 2.083-5 5-3.75s9.168 4.582 9.168 4.582v-7.916l-14.168-2.917-9.582 1.25 16.25 38.334 3.332.418" class="B C"/><path d="M102.439 157.295l-11.543-1.255-10.834-3.334v3.75l5.293 5.837 16.667 7.5" fill="#fff"/><g class="B"><path d="M83.813 158.544s12.918 5.418 17.084 4.168l.415 4.995-11.665-2.495-7.084-5 1.25-1.668" class="C"/><path d="M168.228 178.713c-7.07-.208-13.458-1.047-19.05-2.625.38-2.292-.331-4.542.24-6.194 1.559-1.123 4.171-1.105 6.528-1.369-2.037-1.001-4.9-1.397-7.251-.819-.055-1.591-.769-2.577-1.201-3.822 3.975-1.419 13.359-10.72 18.638-7.64 2.515 1.465 3.584 9.833 3.779 13.901.162 3.375-.306 6.78-1.681 8.567" class="E"/></g><path d="M168.228 178.713c-7.07-.208-13.458-1.047-19.05-2.625.38-2.292-.331-4.542.24-6.194 1.559-1.123 4.171-1.105 6.528-1.369-2.037-1.001-4.9-1.397-7.251-.819-.055-1.591-.769-2.577-1.201-3.822 3.975-1.419 13.359-10.72 18.638-7.64 2.515 1.465 3.584 9.833 3.779 13.901.162 3.375-.306 6.78-1.681 8.567z" fill="none" class="G H"/><path d="M134.419 167.155l-.062 1.614c-2.207 1.45-5.771 1.433-8.194 2.651 3.571.156 6.383 1.016 8.815 2.229l-.157 4.041c-4.046 2.77-7.743 6.895-12.507 9.493-2.253 1.228-10.158 4.39-12.554 3.831-1.356-.315-1.478-1.998-2.02-3.583-1.155-3.396-3.813-8.803-4.045-13.915-.295-6.458-.947-17.28 6.012-15.95 5.614 1.071 12.144 3.657 16.491 6.032 2.656 1.453 4.192 3.248 8.223 3.558" class="B E"/><path d="M134.419 167.155l-.062 1.614c-2.207 1.45-5.771 1.433-8.194 2.651 3.571.156 6.383 1.016 8.815 2.229l-.157 4.041c-4.046 2.77-7.743 6.895-12.507 9.493-2.253 1.228-10.158 4.39-12.554 3.831-1.356-.315-1.478-1.998-2.02-3.583-1.155-3.396-3.813-8.803-4.045-13.915-.295-6.458-.947-17.28 6.012-15.95 5.614 1.071 12.144 3.657 16.491 6.032 2.656 1.453 4.192 3.248 8.223 3.558z" fill="none" class="G H"/><path d="M138.438 174.86c-.618-3.518-1.331-4.521-1.055-7.59 9.381-6.255 11.143 10.744 1.055 7.59" class="B E"/><path d="M138.438 174.86c-.618-3.518-1.331-4.521-1.055-7.59 9.381-6.255 11.143 10.744 1.055 7.59z" fill="none" class="G H"/><g class="B"><path d="M152.021 177.711s-2.918-4.168-.834-5.418 4.168.001 5.418-2.082 0-3.334.416-5.834 2.501-2.917 4.584-3.334 7.917-1.25 8.75.834l-2.5-7.5-5-1.666-15.834 9.166-.834 4.584v9.166m-37.915 15.834l-1.62-19.493c-.882-9.7 2.33-8.007 10.738-8.007 1.284 0 7.907 1.531 8.381 2.5 2.273 4.641-3.8 3.61 2.618 7.11 5.417 2.954 14.987-1.794 12.799-8.36-1.225-1.46-6.382-.455-8.231-1.414l-9.765-5.062c-4.141-2.149-13.713-5.281-18.129-2.279-11.188 7.609.706 26.62 4.697 34.557" fill="#ef3d3a"/><path d="M119.236 43.835c-11.356-2.645-16.999 4.752-20.442 12.425-3.074-.745-1.851-4.925-1.074-7.055 2.033-5.59 10.225-13.031 16.918-12.022 2.88.434 6.778 3.067 4.598 6.652m55.333 12.932l.539.021c2.566 5.331 4.788 10.979 8.025 15.685-2.169 5.051-16.423 9.521-16.202.451 3.083-1.347 8.404-.275 11.136-1.996-1.58-4.336-3.86-8.028-3.498-14.161m-49.519.139c2.435 4.464 3.227 9.154 6.689 12.528 1.559 1.519 4.59 3.37 3.088 7.594-.351.996-2.918 3.218-4.399 3.654-5.411 1.597-18.02.33-13.75-6.416 4.475.209 10.49 2.906 13.835-.343-2.569-4.106-7.148-12.23-5.463-17.016m47.488 45.367c-8.148 5.234-17.232 10.925-30.583 9.605-2.852-2.48-3.94-7.999-1.169-11.644 1.442 2.48.536 7.041 4.556 7.727 7.575 1.296 16.391-4.634 21.84-6.706 3.379-5.696-.291-7.791-3.335-11.457-6.231-7.511-14.59-16.821-14.286-28.066 2.519-1.826 2.736 2.787 3.097 3.627 3.254 7.615 11.442 17.354 17.419 23.871 1.468 1.605 3.884 3.145 4.153 4.206.775 3.086-2.016 6.784-1.693 8.836m-107.41-5.509c-2.554-1.458-3.162-7.877-6.16-8.06-4.285-.26-3.503 8.329-3.486 13.351-2.949-2.677-3.468-10.921-1.301-15.155-2.469-1.213-3.572 1.337-4.941 2.236 1.76-12.787 18.706-5.931 15.889 7.627m112.597 10.836c-3.793 7.219-9.157 15.169-20.286 15.4-.226-2.331-.4-5.879.013-7.282 8.508-.817 13.76-5.147 20.274-8.117m-53.318 4.679c7.098 3.733 20.143 4.134 29.791 3.851.517 2.114.505 4.725.525 7.303-12.401.619-27.064-2.45-30.316-11.154m-1.349 6.96c4.908 12.324 21.778 10.905 36.005 10.565-.626 1.6-1.984 3.49-3.671 4.174-4.559 1.855-17.133 3.263-23.461-.099-4.014-2.134-6.593-6.955-8.792-9.781-1.062-1.365-6.35-4.851-.081-4.859" class="F"/><path d="M171.945 187.217c-5.76 9.865-11.271 19.998-18.105 28.699 2.865-8.424 4.091-22.523 4.524-33.271 5.994-2.805 11.126.631 13.581 4.572" fill="#81b0c4"/><path d="M202.94 222.674c-6.449 1.291-10.98 7.559-17.271 7.156 3.457-4.874 9.516-6.929 17.271-7.156m2.845 10.092c-5.256.555-11.43 1.406-16.761.968 2.524-3.855 12.248-2.525 16.761-.968m1.821 8.701c-5.907.128-13.25.01-18.865-.461 3.321-3.567 15.034-1.324 18.865.461" class="F"/><path d="M160.83 265.279c.847 7.419 3.789 14.936 3.42 23.061-3.266 1.101-5.143 2.065-9.519 2.059-.309-6.905-1.233-17.461-.956-24.044 2.153.142 5.326-1.538 7.055-1.076" class="C"/><path d="M151.306 155.939c-2.966 1.936-5.493 4.354-8.341 6.421-6.317.313-9.765-.437-14.406-4.065.076-.291.542-.161.56-.519 6.762 3.014 15.359-1.228 22.188-1.838" fill="#f0d6b7"/><path d="M115.806 202.036c1.858-8.051 9.138-12.221 15.749-16.655 6.824 8.66 10.974 19.797 15.544 30.545-10.798-3.255-21.83-8.536-31.293-13.89" fill="#81b0c4"/><path d="M153.775 266.355c-.276 6.582.647 17.139.956 24.044 4.376.006 6.253-.957 9.519-2.059.369-8.125-2.572-15.642-3.42-23.061-1.729-.461-4.903 1.219-7.055 1.076zm-68.143-37.436c2.886 26.529 7.065 48.829 14.731 72.321 17.014 5.166 37.525 5.616 52.564.955-2.761-13.259-1.555-29.401-3.169-43.55-1.216-10.635-.596-21.335-2.264-32.185-18.222-3.791-43.979-.886-61.863 2.459zm66.171-2.293c-.154 11.394.51 22.632 1.38 34.04 4.375-.657 7.344-1.095 11.409-1.986-1.32-10.982-1.157-23.34-3.846-33.055-3.107.03-5.844-.036-8.942 1.001zm22.194-1.837c-2.076-.476-4.494-.018-6.477.02.933 9.288 3.195 19.536 3.991 29.285 3.121.097 4.789-1.375 7.356-1.87.138-8.558-.748-20.348-4.87-27.435zm33.605 30.704c6.506-1.58 10.597-9.549 8.778-17.732-1.221-5.5-3.396-15.856-5.724-19.375-1.72-2.602-6.384-6.01-10.108-3.625-6.058 3.879-16.729 5.005-21.146 9.7 2.215 7.375 2.903 17.505 3.816 26.85 7.567.472 16.879-2.082 23.173.628-4.394 1.423-10.095 1.435-13.891 3.509 3.102 1.498 10.366 1.196 15.102.046zm-60.504-39.567c-4.57-10.748-8.72-21.885-15.544-30.545-6.611 4.434-13.891 8.604-15.749 16.655 9.463 5.354 20.496 10.635 31.293 13.89zm11.265-33.281c-.433 10.749-1.659 24.848-4.524 33.271 6.834-8.702 12.345-18.834 18.105-28.699-2.455-3.941-7.588-7.377-13.581-4.572zm-12.77-4.537c-2.589-.279-4.786 2.976-8.153 1.569-.771.852-1.472 1.776-2.259 2.609 7.435 8.96 10.814 21.672 16.556 32.202 3.081-10.115 2.726-21.196 3.405-32.236-4.234.269-6.583-3.829-9.55-4.144zm-8.211-10.838c-.276 3.069.438 4.072 1.055 7.59 10.087 3.154 8.326-13.845-1.055-7.59zm-11.186-3.673c-4.347-2.375-10.876-4.961-16.491-6.032-6.959-1.331-6.307 9.492-6.012 15.95.232 5.113 2.891 10.519 4.045 13.915.542 1.586.664 3.269 2.02 3.583 2.396.559 10.302-2.602 12.554-3.831 4.764-2.598 8.46-6.723 12.506-9.493l.157-4.041c-2.432-1.213-5.244-2.072-8.815-2.229 2.422-1.219 5.986-1.201 8.194-2.651l.063-1.614c-4.03-.31-5.566-2.105-8.222-3.558zm-41.517-7.541c-3.608 3.662 10.118 8.655 14.488 8.924-.024-2.317 1.321-4.502 1.05-6.165-5.19-.911-12.012-.31-15.538-2.759zm44.44 1.72c-.018.358-.484.228-.56.519 4.641 3.627 8.089 4.377 14.406 4.065 2.849-2.067 5.375-4.485 8.341-6.421-6.829.61-15.425 4.851-22.187 1.837zm40.79 12.369c-.195-4.069-1.264-12.436-3.779-13.901-5.279-3.081-14.662 6.221-18.637 7.64.433 1.245 1.146 2.231 1.201 3.822 2.351-.579 5.214-.183 7.251.819-2.356.264-4.969.246-6.528 1.369-.571 1.651.14 3.901-.24 6.194 5.593 1.577 11.98 2.417 19.05 2.625 1.375-1.787 1.844-5.192 1.681-8.567zm-91.303-10.546c-1.133-.807-8.796-10.779-9.846-10.365-13.867 5.469-26.834 14.925-38.42 23.869 11.047 23.705 15.507 52.748 16.295 80.74 12.655 5.919 23.771 14.452 40.944 15.343-1.987-14.06-3.801-26.604-4.929-39.841-4.315-1.819-10.505.083-14.543-.564-.034-4.866 6.167-2.131 6.683-5.403.389-2.475-3.412-2.663-2.174-6.56 3.157 1.148 4.814 3.682 8.181 4.634 3.076-6.73-.043-18.638.4-24.263.084-1.056.527-5.851 2.893-5.01 2.094.745-.12 12.752.11 18.076.209 4.905-.592 9.651 1.394 12.73 16.594-2.259 33.457-3.719 51.412-4.211-3.95-1.695-8.643-3.299-13.787-6.199-2.789-1.572-11.58-4.844-12.385-7.493-1.284-4.221 3.369-6.47 4.165-10.088-8.376 4.568-10.011-4.379-11.992-10.718-1.795-5.741-2.817-10.03-3.258-13.341-7.216-3.44-14.931-6.924-21.141-11.335zm83.974-9.159c11.554-5.602 13.636 20.939 9.107 29.489.7 2.55 3.107 3.526 4.09 5.819-6.447 11.55-13.609 22.331-20.188 33.745 4.894-3.046 11.884-.545 17.643-2.825 2.105-.832 3.629-5.651 5.222-9.506 4.384-10.606 8.986-23.977 11.034-34.099.463-2.306 1.722-7.331 1.44-9.384-.504-3.675-5.49-6.4-8.026-8.673-4.672-4.197-7.615-7.891-12.489-11.816-1.976 2.918-6.218 4.877-7.834 7.25zM52.183 47.98c-5.505 6.058-4.353 17.407-3.686 25.482 9.951-6.26 23.159.495 23.035 11.142 4.751-.126 1.775-5.934.915-9.675-2.808-12.22 4.732-25.496.342-36.671-8.523.646-15.525 4.127-20.606 9.721zm39.392-35.158c-12.463 3.532-28.437 12.589-33.558 23.785 3.966-.576 6.719-2.576 10.631-2.824 1.478-.096 3.415.62 5.115.197 3.386-.84 6.244-8.433 8.799-11.257 2.49-2.759 5.483-3.937 7.532-6.453 1.316-.635 3.262-.591 3.337-2.567-.57-.61-1.171-1.075-1.855-.881zm64.879 3.322c-12.936-7.299-34.833-12.789-48.593-5.929-11.104 5.536-26.112 14.696-31.229 26.304 4.78 11.201-1.416 21.465-1.811 32.838-.21 6.051 2.849 11.334 3.084 17.921-1.636 2.699-6.633 3.031-10.093 2.846-1.165-5.828-3.203-12.377-9.204-13.035-8.491-.929-14.7 6.099-15.085 13.442-.457 8.636 6.633 22.95 16.682 21.956 3.882-.384 4.835-4.275 9.065-4.235 2.292 4.574-3.536 6.01-4.136 9.281-.156.845.483 4.148.855 5.696 1.825 7.541 5.894 17.301 9.899 23.043 5.083 7.282 15.069 8.38 25.813 9.094 1.919-4.134 8.988-3.794 13.594-2.713-5.52-2.186-10.652-7.486-14.905-12.178-4.885-5.383-9.834-11.156-10.084-18.191 9.232 12.808 16.859 23.993 33.646 29.626 12.702 4.26 27.537-1.953 37.297-8.806 4.05-2.849 6.468-7.369 9.346-11.506 10.771-15.494 15.798-37.609 14.692-59.044-.455-8.84-.435-17.65-3.401-23.597-3.1-6.219-13.585-11.782-19.722-6.157-1.137-6.048 5.104-9.788 12.435-7.611-5.227-6.746-10.714-14.852-18.144-19.045zm24.101 199.459c10.109-5.025 28.996-13.526 35.334.019 2.339 4.993 5.083 13.433 6.294 18.587 1.711 7.271-1.855 22.554-9.329 24.994-6.601 2.155-14.304 2.024-22.255.426-.936-.779-1.979-2.136-2.708-3.551-5.678-.22-10.994.305-15.479 2.639.425 4.199-2.415 4.873-5.078 5.737-1.974 7.826 3.949 18.046 2.531 25.183-1.011 5.084-7.266 5.87-11.864 6.821-.15 2.825.201 5.184.515 7.574-1.051 3.874-5.766 6.079-10.234 6.619-14.699 1.768-37.017 2.562-51.155-2.522-3.945-9.677-7.053-21.447-10.339-32.498-13.789 1.473-24.941-5.95-35.455-10.812-3.64-1.687-8.676-2.617-10.036-5.515-1.318-2.805-.779-8.182-1.106-13.26-.833-12.971-1.545-25.483-4.971-38.764-1.538-5.96-4.219-11.219-6.089-16.961-1.729-5.322-4.748-11.9-5.536-17.207-1.168-7.866 6.239-8.304 10.976-11.713 7.322-5.271 13.069-8.186 20.998-12.944 2.349-1.409 9.431-4.975 10.237-6.618 1.602-3.256-2.749-7.847-3.912-10.4-1.84-4.036-2.799-7.465-3.063-11.447-6.652-1.051-11.694-5.01-14.74-9.474-5.038-7.387-8.533-21.055-4.173-31.451.342-.819 2.047-2.429 2.298-3.686.496-2.476-.934-5.769-1.022-8.403-.458-13.513 2.286-25.155 11.383-29.23 3.693-14.711 16.91-19.602 29.363-26.914 4.655-2.733 9.786-4.479 15.085-6.429 19.01-6.996 48.177-5.679 63.955 6.254 6.69 5.06 17.384 15.744 21.209 23.479 10.102 20.421 9.385 54.55 2.319 79.391-.95 3.335-2.328 8.238-4.251 12.244-1.341 2.797-5.51 8.395-5.004 10.865.521 2.554 9.505 9.375 11.431 11.232 3.469 3.346 10.059 7.788 10.592 12.01.574 4.494-1.98 10.641-3.274 14.977-4.325 14.471-8.545 27.848-13.449 40.749" class="F"/><path d="M113.114 115.431c.548-.73 3.564-1.839 7.782.192 0 0-5 .834-4.584 9.17l-2.083-.417s-2.153-7.559-1.115-8.945" class="D"/><path d="M149.646 187.083a2.292 2.292 0 1 1-4.584 0c0-1.265 1.026-2.293 2.291-2.293s2.293 1.028 2.293 2.293m2.292 10.625a2.292 2.292 0 1 1-4.584 0c0-1.265 1.026-2.293 2.291-2.293s2.293 1.027 2.293 2.293" fill="#1d1919"/></g></svg>